<?xml version="1.0" encoding="UTF-8" standalone="no"?><svg xmlns="http://www.w3.org/2000/svg" xmlns:xlink="http://www.w3.org/1999/xlink" contentStyleType="text/css" height="333px" preserveAspectRatio="none" style="width:517px;height:333px;background:#00000000;" version="1.1" viewBox="0 0 517 333" width="517px" zoomAndPan="magnify"><defs><filter height="300%" id="f1m476sgerap1l" width="300%" x="-1" y="-1"><feGaussianBlur result="blurOut" stdDeviation="2.0"/><feColorMatrix in="blurOut" result="blurOut2" type="matrix" values="0 0 0 0 0 0 0 0 0 0 0 0 0 0 0 0 0 0 .4 0"/><feOffset dx="4.0" dy="4.0" in="blurOut2" result="blurOut3"/><feBlend in="SourceGraphic" in2="blurOut3" mode="normal"/></filter></defs><g><!--MD5=[d702b5defa885a930590febba50adfe6]
cluster Meta ecosystem--><g id="cluster_Meta ecosystem"><path d="M8.5,6 L125.5,6 A3.75,3.75 0 0 1 128,8.5 L135,28.4883 L135.5,28.4883 A2.5,2.5 0 0 1 138,30.9883 L138,217.5 A2.5,2.5 0 0 1 135.5,220 L8.5,220 A2.5,2.5 0 0 1 6,217.5 L6,8.5 A2.5,2.5 0 0 1 8.5,6 " fill="none" filter="url(#f1m476sgerap1l)" style="stroke:#000000;stroke-width:1.5;"/><line style="stroke:#000000;stroke-width:1.5;" x1="6" x2="135" y1="28.4883" y2="28.4883"/><text fill="#000000" font-family="sans-serif" font-size="14" font-weight="bold" lengthAdjust="spacing" textLength="116" x="10" y="21.5352">Meta ecosystem</text></g><!--MD5=[a1e697959a4136f8f292b7e2b4e69eb9]
cluster fs--><g id="cluster_fs"><path d="M172.5,125 L459.5,125 A3.75,3.75 0 0 1 462,127.5 L469,147.4883 L505.5,147.4883 A2.5,2.5 0 0 1 508,149.9883 L508,321.5 A2.5,2.5 0 0 1 505.5,324 L172.5,324 A2.5,2.5 0 0 1 170,321.5 L170,127.5 A2.5,2.5 0 0 1 172.5,125 " fill="none" filter="url(#f1m476sgerap1l)" style="stroke:#000000;stroke-width:1.5;"/><line style="stroke:#000000;stroke-width:1.5;" x1="170" x2="469" y1="147.4883" y2="147.4883"/><text fill="#000000" font-family="sans-serif" font-size="14" font-weight="bold" lengthAdjust="spacing" textLength="286" x="174" y="140.5352">firmly services production environment</text></g><!--MD5=[f669385ec4b061b7bf4f7b2468229aad]
cluster firmly secured environment--><g id="cluster_firmly secured environment"><path d="M164.5,6 L365.5,6 A3.75,3.75 0 0 1 368,8.5 L375,28.4883 L375.5,28.4883 A2.5,2.5 0 0 1 378,30.9883 L378,90.5 A2.5,2.5 0 0 1 375.5,93 L164.5,93 A2.5,2.5 0 0 1 162,90.5 L162,8.5 A2.5,2.5 0 0 1 164.5,6 " fill="none" filter="url(#f1m476sgerap1l)" style="stroke:#000000;stroke-width:1.5;"/><line style="stroke:#000000;stroke-width:1.5;" x1="162" x2="375" y1="28.4883" y2="28.4883"/><text fill="#000000" font-family="sans-serif" font-size="14" font-weight="bold" lengthAdjust="spacing" textLength="200" x="166" y="21.5352">firmly secured environment</text></g><!--MD5=[07074073229a58b98d86dbf75a12e332]
cluster Internet--><g id="cluster_Internet"><path d="M411.7686,25.049 C413.6294,17.9431 419.2508,15.387 424.9986,21.0084 C427.7786,13.5782 433.6091,10.7107 439.7577,17.516 C447.1896,11.263 451.4785,12.7528 454.1571,21.9469 C458.5824,15.8131 464.3449,16.6126 467.7031,23.0929 C474.8212,26.787 475.3954,30.9709 469.3676,36.3194 C476.0595,41.5385 476.6609,46.0983 468.7999,50.7447 C475.8182,54.4065 474.8619,60.6234 469.1095,64.5711 C474.7116,69.6538 474.6705,73.8549 468.1967,78.1243 C464.3139,85.6709 458.7234,87.4373 452.8249,80.2236 C449.9215,86.2238 445.5711,87.3121 440.2645,83.2125 C434.0096,89.9958 428.9789,90.2826 424.8211,81.1746 C418.5849,86.1451 412.9327,85.3243 410.4642,77.0809 C404.0554,74.7778 401.3079,70.3775 406.9212,64.6484 C400.6535,62.3088 397.9798,57.042 403.4721,51.5951 C397.1411,45.9084 400.4936,39.4052 407.4112,37.3933 C403.0416,32.0642 405.0551,26.4659 411.7686,25.049 " fill="none" filter="url(#f1m476sgerap1l)" style="stroke:#181818;stroke-width:1.0;"/><text fill="#000000" font-family="sans-serif" font-size="14" font-weight="bold" lengthAdjust="spacing" textLength="57" x="410" y="41.5352">Internet</text></g><!--MD5=[c617d1e94391e02d80a02faf38d11fae]
entity m--><g id="elem_m"><rect fill="#F1F1F1" filter="url(#f1m476sgerap1l)" height="36.4883" rx="2.5" ry="2.5" style="stroke:#181818;stroke-width:0.5;" width="92" x="30" y="41"/><rect fill="#F1F1F1" height="5" style="stroke:#181818;stroke-width:0.5;" width="10" x="25" y="46"/><rect fill="#F1F1F1" height="5" style="stroke:#181818;stroke-width:0.5;" width="10" x="25" y="67.4883"/><text fill="#000000" font-family="sans-serif" font-size="14" lengthAdjust="spacing" textLength="72" x="40" y="64.5352">Meta Vault</text></g><!--MD5=[f83ae91a690dfc657e1c5fbbd818f13d]
entity a--><g id="elem_a"><rect fill="#F1F1F1" filter="url(#f1m476sgerap1l)" height="36.4883" rx="2.5" ry="2.5" style="stroke:#181818;stroke-width:0.5;" width="85" x="34.5" y="168"/><rect fill="#F1F1F1" height="5" style="stroke:#181818;stroke-width:0.5;" width="10" x="29.5" y="173"/><rect fill="#F1F1F1" height="5" style="stroke:#181818;stroke-width:0.5;" width="10" x="29.5" y="194.4883"/><text fill="#000000" font-family="sans-serif" font-size="14" lengthAdjust="spacing" textLength="65" x="44.5" y="191.5352">Meta App</text></g><!--MD5=[d8322213e5f4465576b8bf70cd9bce59]
entity s--><g id="elem_s"><rect fill="#F1F1F1" filter="url(#f1m476sgerap1l)" height="36.4883" rx="2.5" ry="2.5" style="stroke:#181818;stroke-width:0.5;" width="109" x="213.5" y="168"/><rect fill="#F1F1F1" height="5" style="stroke:#181818;stroke-width:0.5;" width="10" x="208.5" y="173"/><rect fill="#F1F1F1" height="5" style="stroke:#181818;stroke-width:0.5;" width="10" x="208.5" y="194.4883"/><text fill="#000000" font-family="sans-serif" font-size="14" lengthAdjust="spacing" textLength="89" x="223.5" y="191.5352">shop-service</text></g><!--MD5=[c807758c2e9e0d1754c3d4b69a0f6713]
entity i--><g id="elem_i"><rect fill="#F1F1F1" filter="url(#f1m476sgerap1l)" height="36.4883" rx="2.5" ry="2.5" style="stroke:#181818;stroke-width:0.5;" width="126" x="358" y="168"/><rect fill="#F1F1F1" height="5" style="stroke:#181818;stroke-width:0.5;" width="10" x="353" y="173"/><rect fill="#F1F1F1" height="5" style="stroke:#181818;stroke-width:0.5;" width="10" x="353" y="194.4883"/><text fill="#000000" font-family="sans-serif" font-size="14" lengthAdjust="spacing" textLength="106" x="368" y="191.5352">identity-service</text></g><!--MD5=[be5750da26e06623bc49653cefaf97c7]
entity p--><g id="elem_p"><rect fill="#F1F1F1" filter="url(#f1m476sgerap1l)" height="36.4883" rx="2.5" ry="2.5" style="stroke:#181818;stroke-width:0.5;" width="120" x="213" y="264"/><rect fill="#F1F1F1" height="5" style="stroke:#181818;stroke-width:0.5;" width="10" x="208" y="269"/><rect fill="#F1F1F1" height="5" style="stroke:#181818;stroke-width:0.5;" width="10" x="208" y="290.4883"/><text fill="#000000" font-family="sans-serif" font-size="14" lengthAdjust="spacing" textLength="100" x="223" y="287.5352">profile-service</text></g><!--MD5=[2d611726bd9fad7d9bb2742aefb86083]
entity v--><g id="elem_v"><rect fill="#F1F1F1" filter="url(#f1m476sgerap1l)" height="36.4883" rx="2.5" ry="2.5" style="stroke:#181818;stroke-width:0.5;" width="53" x="243.5" y="41"/><rect fill="#F1F1F1" height="5" style="stroke:#181818;stroke-width:0.5;" width="10" x="238.5" y="46"/><rect fill="#F1F1F1" height="5" style="stroke:#181818;stroke-width:0.5;" width="10" x="238.5" y="67.4883"/><text fill="#000000" font-family="sans-serif" font-size="14" lengthAdjust="spacing" textLength="33" x="253.5" y="64.5352">vault</text></g><!--MD5=[3c6d5cdcdfcd4a14e0e44c9a7ff9f3e6]
entity me--><g id="elem_me"><ellipse cx="427" cy="59" fill="#F1F1F1" filter="url(#f1m476sgerap1l)" rx="8" ry="8" style="stroke:#181818;stroke-width:0.5;"/><text fill="#000000" font-family="sans-serif" font-size="14" lengthAdjust="spacing" textLength="114" x="370" y="89.5352">merchant's Vault</text></g><!--MD5=[4faf5bd551f6ac47621b885f9617e43a]
reverse link m to a--><g id="link_m_a"><path d="M77,82.2 C77,82.2 77,167.84 77,167.84 " fill="none" id="m-backto-a" style="stroke:#181818;stroke-width:1.0;"/><polygon fill="#181818" points="77,77.2,73,86.2,77,82.2,81,86.2,77,77.2" style="stroke:#181818;stroke-width:1.0;"/></g><!--MD5=[3c441c481c006968acec7f35c5636be3]
link a to fs--><g id="link_a_fs"><path d="M119.54,186 C132.05,186 145.225,186 155.8938,186 C161.2281,186 165.9359,186 169.6208,186 C169.7359,186 169.8501,186 169.9632,186 " fill="none" id="a-to-fs" style="stroke:#181818;stroke-width:1.0;"/><polygon fill="#181818" points="169.9632,186,160.9632,182,164.9632,186,160.9632,190,169.9632,186" style="stroke:#181818;stroke-width:1.0;"/></g><!--MD5=[94de845473090b6830140f2c8e0f8b0e]
link m to v--><g id="link_m_v"><path d="M122.47,59 C122.47,59 238.32,59 238.32,59 " fill="none" id="m-to-v" style="stroke:#181818;stroke-width:1.0;"/><polygon fill="#181818" points="243.32,59,234.32,55,238.32,59,234.32,63,243.32,59" style="stroke:#181818;stroke-width:1.0;"/></g><!--MD5=[e8509f6e93affcb63b3791a3eb094ce4]
link v to me--><g id="link_v_me"><path d="M296.63,59 C296.63,59 412.81,59 412.81,59 " fill="none" id="v-to-me" style="stroke:#181818;stroke-width:1.0;"/><polygon fill="#181818" points="417.81,59,408.81,55,412.81,59,408.81,63,417.81,59" style="stroke:#181818;stroke-width:1.0;"/></g></g></svg>